HIERARCHY
ROOT hip
{
  OFFSET 0 0 0
  CHANNELS 6 Xposition Yposition Zposition Zrotation Yrotation Xrotation
  JOINT abdomen
  {
    OFFSET 0 20.6881 -0.73152
    CHANNELS 3 Zrotation Xrotation Yrotation
    JOINT chest
    {
      OFFSET 0 11.7043 -0.48768
      CHANNELS 3 Zrotation Xrotation Yrotation
      JOINT neck
      {
        OFFSET 0 22.1894 -2.19456
        CHANNELS 3 Zrotation Xrotation Yrotation
        JOINT head
        {
          OFFSET -0.24384 7.07133 1.2192
          CHANNELS 3 Zrotation Xrotation Yrotation
          JOINT leftEye
          {
            OFFSET 4.14528 8.04674 8.04672
            CHANNELS 3 Zrotation Xrotation Yrotation
            End Site
            {
              OFFSET 1 0 0
            }
          }
          JOINT rightEye
          {
            OFFSET -3.6576 8.04674 8.04672
            CHANNELS 3 Zrotation Xrotation Yrotation
            End Site
            {
              OFFSET 1 0 0
            }
          }
        }
      }
      JOINT rCollar
      {
        OFFSET -2.68224 19.2634 -4.8768
        CHANNELS 3 Zrotation Xrotation Yrotation
        JOINT rShldr
        {
          OFFSET -8.77824 -1.95073 1.46304
          CHANNELS 3 Zrotation Xrotation Yrotation
          JOINT rForeArm
          {
            OFFSET -28.1742 -1.7115 0.48768
            CHANNELS 3 Zrotation Xrotation Yrotation
            JOINT rHand
            {
              OFFSET -22.5879 0.773209 7.07136
              CHANNELS 3 Zrotation Xrotation Yrotation
              JOINT rThumb1
              {
                OFFSET -1.2192 -0.487915 3.41376
                CHANNELS 3 Zrotation Xrotation Yrotation
                JOINT rThumb2
                {
                  OFFSET -3.37035 -0.52449 3.41376
                  CHANNELS 3 Zrotation Xrotation Yrotation
                  End Site
                  {
                    OFFSET -1.78271 -1.18214 1.43049
                  }
                }
              }
              JOINT rIndex1
              {
                OFFSET -7.75947 0.938293 5.60832
                CHANNELS 3 Zrotation Xrotation Yrotation
                JOINT rIndex2
                {
                  OFFSET -2.54057 -0.884171 1.56538
                  CHANNELS 3 Zrotation Xrotation Yrotation
                  End Site
                  {
                    OFFSET -1.62519 -0.234802 1.16502
                  }
                }
              }
              JOINT rMid1
              {
                OFFSET -8.24714 1.18213 3.41376
                CHANNELS 3 Zrotation Xrotation Yrotation
                JOINT rMid2
                {
                  OFFSET -3.10165 -0.590103 1.0647
                  CHANNELS 3 Zrotation Xrotation Yrotation
                  End Site
                  {
                    OFFSET -2.48547 -0.328903 0.83742
                  }
                }
              }
              JOINT rRing1
              {
                OFFSET -8.82822 0.546677 1.51678
                CHANNELS 3 Zrotation Xrotation Yrotation
                JOINT rRing2
                {
                  OFFSET -2.60934 -0.819778 -0.0198488
                  CHANNELS 3 Zrotation Xrotation Yrotation
                  End Site
                  {
                    OFFSET -2.33842 -0.294052 0.168128
                  }
                }
              }
              JOINT rPinky1
              {
                OFFSET -8.27202 -0.0477905 -0.4584
                CHANNELS 3 Zrotation Xrotation Yrotation
                JOINT rPinky2
                {
                  OFFSET -1.82734 -0.647385 -0.700984
                  CHANNELS 3 Zrotation Xrotation Yrotation
                  End Site
                  {
                    OFFSET -1.69225 -0.51767 -0.607171
                  }
                }
              }
            }
          }
        }
      }
      JOINT lCollar
      {
        OFFSET 2.68224 19.2634 -4.8768
        CHANNELS 3 Zrotation Xrotation Yrotation
        JOINT lShldr
        {
          OFFSET 8.77824 -1.95073 1.46304
          CHANNELS 3 Zrotation Xrotation Yrotation
          JOINT lForeArm
          {
            OFFSET 28.1742 -1.7115 0.48768
            CHANNELS 3 Zrotation Xrotation Yrotation
            JOINT lHand
            {
              OFFSET 22.5879 0.773209 7.07136
              CHANNELS 3 Zrotation Xrotation Yrotation
              JOINT lThumb1
              {
                OFFSET 1.2192 -0.487915 3.41376
                CHANNELS 3 Zrotation Xrotation Yrotation
                JOINT lThumb2
                {
                  OFFSET 3.37035 -0.52449 3.41376
                  CHANNELS 3 Zrotation Xrotation Yrotation
                  End Site
                  {
                    OFFSET 1.78271 -1.18214 1.43049
                  }
                }
              }
              JOINT lIndex1
              {
                OFFSET 7.75947 0.938293 5.60832
                CHANNELS 3 Zrotation Xrotation Yrotation
                JOINT lIndex2
                {
                  OFFSET 2.54057 -0.884171 1.56538
                  CHANNELS 3 Zrotation Xrotation Yrotation
                  End Site
                  {
                    OFFSET 1.62519 -0.234802 1.16502
                  }
                }
              }
              JOINT lMid1
              {
                OFFSET 8.24714 1.18213 3.41376
                CHANNELS 3 Zrotation Xrotation Yrotation
                JOINT lMid2
                {
                  OFFSET 3.10165 -0.590103 1.0647
                  CHANNELS 3 Zrotation Xrotation Yrotation
                  End Site
                  {
                    OFFSET 2.48547 -0.328903 0.83742
                  }
                }
              }
              JOINT lRing1
              {
                OFFSET 8.82822 0.546677 1.51678
                CHANNELS 3 Zrotation Xrotation Yrotation
                JOINT lRing2
                {
                  OFFSET 2.60934 -0.819778 -0.0198488
                  CHANNELS 3 Zrotation Xrotation Yrotation
                  End Site
                  {
                    OFFSET 2.33842 -0.294052 0.168128
                  }
                }
              }
              JOINT lPinky1
              {
                OFFSET 8.27202 -0.0477905 -0.4584
                CHANNELS 3 Zrotation Xrotation Yrotation
                JOINT lPinky2
                {
                  OFFSET 1.82734 -0.647385 -0.700984
                  CHANNELS 3 Zrotation Xrotation Yrotation
                  End Site
                  {
                    OFFSET 1.69225 -0.51767 -0.607171
                  }
                }
              }
            }
          }
        }
      }
    }
  }
  JOINT rButtock
  {
    OFFSET -8.77824 4.35084 1.2192
    CHANNELS 3 Zrotation Xrotation Yrotation
    JOINT rThigh
    {
      OFFSET 0 -1.70687 -2.19456
      CHANNELS 3 Zrotation Xrotation Yrotation
      JOINT rShin
      {
        OFFSET 0 -36.8199 0.73152
        CHANNELS 3 Zrotation Xrotation Yrotation
        JOINT rFoot
        {
          OFFSET 0.73152 -45.1104 -5.12064
          CHANNELS 3 Zrotation Xrotation Yrotation
          End Site
          {
            OFFSET -1.1221 -3.69964 12.103
          }
        }
      }
    }
  }
  JOINT lButtock
  {
    OFFSET 8.77824 4.35084 1.2192
    CHANNELS 3 Zrotation Xrotation Yrotation
    JOINT lThigh
    {
      OFFSET 0 -1.70687 -2.19456
      CHANNELS 3 Zrotation Xrotation Yrotation
      JOINT lShin
      {
        OFFSET 0 -36.8199 0.73152
        CHANNELS 3 Zrotation Xrotation Yrotation
        JOINT lFoot
        {
          OFFSET -0.73152 -45.1104 -5.12064
          CHANNELS 3 Zrotation Xrotation Yrotation
          End Site
          {
            OFFSET 1.1221 -3.69964 12.103
          }
        }
      }
    }
  }
}
MOTION
Frames:	7
Frame Time:	0.00833333
0.0 0.0 0.0 0.0 0.0 0.0 0.0 0.0 0.0 0.0 0.0 0.0 0.0 0.0 0.0 0.0 0.0 0.0 0.0 0.0 0.0 0.0 0.0 0.0 0.0 0.0 0.0 0.0 0.0 0.0 0.0 0.0 0.0 0.0 0.0 0.0 0.0 0.0 0.0 0.0 0.0 0.0 0.0 0.0 0.0 0.0 0.0 0.0 0.0 0.0 0.0 0.0 0.0 0.0 0.0 0.0 0.0 0.0 0.0 0.0 0.0 0.0 0.0 0.0 0.0 0.0 0.0 0.0 0.0 0.0 0.0 0.0 0.0 0.0 0.0 0.0 0.0 0.0 0.0 0.0 0.0 0.0 0.0 0.0 0.0 0.0 0.0 0.0 0.0 0.0 0.0 0.0 0.0 0.0 0.0 0.0 0.0 0.0 0.0 0.0 0.0 0.0 0.0 0.0 0.0 0.0 0.0 0.0 0.0 0.0 0.0 0.0 0.0 0.0 0.0 0.0 0.0 0.0 0.0 0.0 0.0 0.0 0.0 0.0 0.0 0.0 0.0 0.0 0.0 0.0 0.0 0.0
0.010799999999999999 62.12220000000001 0.1116 -179.725734 -66.533762 178.815504 -0.204095 -0.945193 167.814668 3.454269 -12.397728 -163.04964 -6.968387 -2.575457 -126.936738 43.835089 33.647743 109.832434 36.763937 -0.122219 -0.367789 31.025587 -7.869211 -27.834843 63.245205 27.767567 11.902149 -164.988471 -28.287864 169.113423 -178.937885 6.034284 -33.050904 2.098542 18.720197 -56.826789 2.875374 -13.757758 33.917903 22.372458 17.033392 -147.046211 40.056832 33.941149 -89.797569 -12.673429 -25.885137 40.754385 143.1758 31.237963 -117.610706 -158.507832 -7.93747 140.099173 79.946393 19.269309 -79.42839 10.186744 26.566242 -0.392732 85.884571 17.529601 -60.089246 -140.924057 -7.779541 -137.474965 89.456271 -54.393279 -169.080198 -13.146899 -62.916375 -4.514958 163.991333 43.566238 31.141449 -23.285272 -39.950674 21.315224 177.255972 3.406259 -79.276191 -49.611946 -61.436578 -21.138218 -4.702068 -29.882996 -15.418576 137.061615 20.225378 -102.335808 163.585602 9.533844 -131.683932 177.885872 -30.48655 -146.277989 -160.240788 23.960376 60.704989 -9.37693 13.847374 6.880514 167.405013 37.590506 42.892977 -22.41701 57.972508 -7.23728 -18.188188 52.63535 -156.4789 1.437971 53.525732 114.156421 -2.87075 6.765224 -144.10268 -65.488365 -17.417389 112.362701 -4.550797 -48.643873 -6.052903 1.41193 49.924008 -1.062427 2.755267 -4.530121 30.005601 -46.039027 69.699536 42.345747
0.13799999999999998 57.9503 0.41559999999999997 -10.875759 -54.241631 7.678111 3.29056 12.535393 -0.580965 0.603904 -10.660035 18.732402 2.605018 12.845264 21.629707 -4.898624 -18.594445 7.92665 0.025098 -0.000551 -2.515767 -1.665175 -0.024621 1.694083 -150.197653 22.628945 154.90419 -65.067545 22.97919 38.794219 -7.827059 22.522096 -142.33941 -146.975044 28.430818 132.524955 176.951795 -17.776309 92.724765 55.235108 -71.08881 45.808839 -164.94925 -46.90757 128.353508 -128.317674 29.723776 106.921085 -166.425926 -14.80382 145.555398 -153.318843 24.552642 134.878943 -148.968478 -4.038632 -175.885785 -152.301044 -25.332077 -176.263857 28.722766 75.998849 -1.013918 -149.62475 -5.024215 -141.620949 -0.892046 -0.173021 -1.010497 122.336945 -22.824735 -141.364288 -4.818435 -50.947 122.273891 -154.888235 -36.500233 -136.971826 97.767811 35.544712 -54.965264 -24.556511 -31.635059 -21.926156 123.559202 21.374626 -102.950167 -79.741792 -70.394887 -33.296201 -1.696277 -1.43219 -0.138364 -7.268905 -20.779389 2.552745 145.892441 7.229465 -175.991237 158.382734 -12.662466 177.314807 78.8284 -49.087577 80.654328 141.466603 71.747044 170.625385 -0.326196 -0.74938 0.415103 -23.393628 -31.818118 -180.0 -101.462873 -63.413151 -67.685024 29.434327 28.41704 118.043962 -178.45427 76.769664 -1.587855 -138.404957 11.321217 -8.909013 1.694505 77.547507 114.14283 -15.650739 -21.704721 -124.353457
0.1591 56.238600000000005 0.7686000000000001 -9.642736 -54.086367 6.785589 0.759148 8.212331 145.267554 -5.04398 4.95948 -126.388638 -4.092936 31.498921 -144.478553 14.749598 37.611854 168.014315 0.108055 0.000952 1.009161 -0.002363 3e-05 -1.451983 -0.262936 -0.348531 -1.052528 64.757448 14.056471 -0.180083 -29.440422 4.45915 123.569554 -133.211464 -83.32224 -146.038064 71.62088 -48.647445 25.607771 -33.913325 13.319501 -7.39037 12.065873 -21.775084 -6.160989 97.238644 -63.294996 42.417691 -56.314584 61.086695 48.472002 4.929461 -12.400579 0.310913 -73.128854 -72.27638 -89.995681 -70.564934 -83.036572 -93.853748 -144.592261 7.311413 -142.316107 -10.272623 -24.351893 -7.258516 13.963257 42.874641 -16.957027 3.93159 10.897207 -68.506181 110.052645 -18.91576 43.294537 -11.265899 -13.959801 -6.35231 -175.271513 -21.007642 -88.193046 -130.739496 -68.563591 -97.21186 146.292957 -7.055867 -116.536846 -2.090067 12.88342 5.038994 170.82728 -33.313457 -143.179367 21.323963 43.734193 -17.404546 146.029589 -0.671512 -178.742953 143.573146 -56.876207 164.934808 84.790546 -52.234391 80.662965 -29.994403 75.19288 -3.196645 179.30351 75.193184 0.720411 150.695995 39.50092 19.183081 80.377802 65.540487 8.70323 -132.202467 -50.466945 166.389571 -2.304418 0.14464 -3.464601 67.104739 -38.683243 -34.95032 -80.843287 -2.926889 -138.294087 43.098844 62.257837 -138.237651
0.1263 55.823 1.341 -8.816347 -54.237607 5.87973 1.159143 13.609621 -0.22584 0.009843 -12.152724 17.706105 -7.368472 31.078088 -126.293354 23.657765 34.688422 147.846425 0.111402 -0.000639 -0.65767 2.059649 -0.041736 -2.3215 -54.336621 -85.976166 -75.523214 136.748942 39.087417 -118.336069 -95.692614 -40.516109 77.920334 -164.587844 -26.732764 157.759892 -78.647359 38.736849 42.607376 59.198691 -41.342086 23.765894 -140.681714 1.153466 115.576983 33.957946 -37.977469 -3.279608 -89.990593 60.424729 81.116822 -177.616373 -48.950799 142.691635 -145.574244 -3.137546 -177.926677 6.114215 -21.437786 -12.969086 -19.57325 -40.939474 -20.010386 18.198408 62.035276 6.473853 156.978047 -18.219141 -163.857252 -78.46042 60.717649 105.534698 161.719465 -32.032526 -63.012294 -139.697487 -50.297586 -124.899215 172.474093 -9.04127 -89.614271 44.244785 -17.581104 -5.543539 15.100821 18.697429 -10.338677 166.89798 -20.24957 -109.960553 -27.408026 -60.599506 -5.782638 12.387716 33.743873 -8.45535 71.539589 -74.106445 88.687601 -13.427969 -0.021202 4.498926 -8.713546 41.889099 -11.856977 149.384945 34.632598 148.680021 -0.203374 1.769205 0.267639 -26.75437 -30.027568 -45.212202 -102.800849 76.030485 -49.579674 -95.128784 73.060587 -145.278841 -178.841285 73.963519 -0.0 -139.417655 10.211592 -7.685958 -9.647106 72.326554 70.275518 22.766743 -31.807442 -63.237373
0.1666 55.5785 1.6895 -8.920789 -54.536444 5.690526 0.775833 9.429401 175.274919 -0.797476 7.56945 -157.238833 -9.460339 19.152587 -52.65384 32.617279 -1.024404 80.538284 1.422488 0.043459 3.499647 1.077311 -0.006476 -0.688768 2.083345 -18.210174 -4.073828 -111.706832 -3.532366 -166.16828 -1.789718 53.141515 -142.888316 -136.247574 33.875205 122.996434 -171.381432 -9.563421 89.687439 -143.155934 9.680498 72.296565 -1.227797 3.153161 2.055974 -79.90345 49.320464 61.717858 -112.189685 56.531592 102.390617 -167.727452 -17.381359 143.413952 -145.120033 0.347297 -179.149997 11.723493 29.538891 -8.331031 -85.350093 -52.209852 -85.16959 -10.793394 -24.6113 -13.012292 9.812738 34.711091 -11.796536 -122.33756 -31.643918 -81.230104 -179.374217 -13.716441 -53.678132 -153.799708 -35.883867 -137.906411 99.470051 36.978692 -56.546537 -3.02859 -23.552254 -25.94777 47.778107 39.04606 -36.127517 160.116375 -8.081096 -111.067165 161.625062 -5.071768 -141.323797 165.16991 -3.863567 -141.672237 0.571752 -0.878833 -0.324081 -11.044359 -13.807262 2.121193 -11.695001 44.52635 -11.305919 38.030961 -48.849368 39.47679 -175.841965 74.665011 -2.784522 146.938532 39.748914 22.072236 68.496057 76.469276 -147.526382 20.677488 -25.481179 62.051771 -178.761844 74.350489 -0.0 -139.977512 9.471603 101.087036 80.274529 -4.719737 126.268104 42.04494 -8.287737 160.605904
0.1806 55.443299999999994 1.9317000000000002 -8.524009 -54.58481 5.622119 0.266814 13.783931 -0.052775 0.154837 -12.247763 18.007849 10.159241 20.450415 82.093337 -28.655549 -3.437974 -57.126102 0.923004 0.030085 3.733643 0.51453 0.000291 0.064838 -9.247769 34.917124 10.941741 -112.990651 -8.875229 148.880398 178.480334 -23.625948 -69.252807 -18.190206 -48.518693 -13.467558 83.47476 -49.540251 33.7317 -31.821533 6.004365 -8.634293 -138.386441 4.149424 113.704334 -173.596787 -34.593647 116.066965 -15.616031 32.882663 10.64018 -42.433167 58.24296 36.723934 -145.61743 -0.047407 -179.53511 -158.603953 31.604905 178.94087 -112.420974 -41.990913 -110.946374 -77.012885 -51.950345 -75.726204 56.560273 -87.13032 78.217086 84.094129 -38.280873 122.727966 22.777621 -15.543248 131.569416 -126.339905 -58.749709 -113.242792 -2.103483 -3.411488 0.302848 -26.851951 -45.943405 19.257734 125.68974 21.905107 -105.005608 74.259568 54.314806 -54.738009 37.508557 51.104406 -30.584281 170.431543 -31.654532 -143.802821 145.955824 1.463968 178.665638 155.497334 76.191362 -169.265152 140.447284 -0.776161 137.325398 159.425159 52.493264 149.004979 178.19308 74.472516 1.875319 148.715655 39.437456 43.727853 80.961222 54.416398 -160.047288 71.64858 27.929501 34.136966 3.090005 1.640452 1.566906 57.796318 -43.311199 48.33249 -46.620853 65.378463 -43.547127 0.443706 16.556437 91.425623
